<svg xmlns="http://www.w3.org/2000/svg" viewBox="0 0 64 64">
  <defs>
    <linearGradient id="g" x1="0%" y1="0%" x2="100%" y2="100%">
      <stop offset="0%" stop-color="#00E5FF"/>
      <stop offset="100%" stop-color="#7C5CFC"/>
    </linearGradient>
  </defs>
  <rect width="64" height="64" rx="14" fill="#0B1930"/>
  <path d="M32 10 L52 22 L52 42 L32 54 L12 42 L12 22 Z" fill="none" stroke="url(#g)" stroke-width="2.5" stroke-linejoin="round"/>
  <circle cx="32" cy="22" r="3" fill="#00E5FF"/>
  <circle cx="43" cy="32" r="2.5" fill="#7C5CFC"/>
  <circle cx="32" cy="42" r="2.5" fill="#00E5FF"/>
  <circle cx="21" cy="32" r="2.5" fill="#7C5CFC"/>
  <line x1="32" y1="22" x2="43" y2="32" stroke="#00E5FF" stroke-width="1.5" opacity=".5"/>
  <line x1="43" y1="32" x2="32" y2="42" stroke="#7C5CFC" stroke-width="1.5" opacity=".5"/>
  <line x1="32" y1="42" x2="21" y2="32" stroke="#00E5FF" stroke-width="1.5" opacity=".5"/>
  <line x1="21" y1="32" x2="32" y2="22" stroke="#7C5CFC" stroke-width="1.5" opacity=".5"/>
  <circle cx="32" cy="32" r="4.5" fill="url(#g)"/>
  <circle cx="32" cy="32" r="1.8" fill="#0B1930"/>
  <circle cx="32" cy="10" r="1.2" fill="#00E5FF" opacity=".6"/>
  <circle cx="52" cy="22" r="1.2" fill="#7C5CFC" opacity=".5"/>
  <circle cx="52" cy="42" r="1.2" fill="#00E5FF" opacity=".5"/>
  <circle cx="32" cy="54" r="1.2" fill="#7C5CFC" opacity=".6"/>
  <circle cx="12" cy="42" r="1.2" fill="#00E5FF" opacity=".5"/>
  <circle cx="12" cy="22" r="1.2" fill="#7C5CFC" opacity=".5"/>
</svg>
