<svg xmlns="http://www.w3.org/2000/svg" viewBox="0 0 64 64">
  <defs>
    <linearGradient id="g" x1="0%" y1="0%" x2="100%" y2="100%">
      <stop offset="0%" stop-color="#00E5FF"/>
      <stop offset="100%" stop-color="#7C5CFC"/>
    </linearGradient>
  </defs>
  <path d="M32 4 L58 19 L58 49 L32 64 L6 49 L6 19 Z" fill="none" stroke="url(#g)" stroke-width="2.5" stroke-linejoin="round"/>
  <circle cx="32" cy="19" r="4" fill="#00E5FF"/>
  <circle cx="47" cy="32" r="3.5" fill="#7C5CFC"/>
  <circle cx="32" cy="45" r="3.5" fill="#00E5FF"/>
  <circle cx="17" cy="32" r="3.5" fill="#7C5CFC"/>
  <line x1="32" y1="19" x2="47" y2="32" stroke="#00E5FF" stroke-width="1.8" opacity=".4"/>
  <line x1="47" y1="32" x2="32" y2="45" stroke="#7C5CFC" stroke-width="1.8" opacity=".4"/>
  <line x1="32" y1="45" x2="17" y2="32" stroke="#00E5FF" stroke-width="1.8" opacity=".4"/>
  <line x1="17" y1="32" x2="32" y2="19" stroke="#7C5CFC" stroke-width="1.8" opacity=".4"/>
  <circle cx="32" cy="32" r="6" fill="url(#g)"/>
  <circle cx="32" cy="32" r="2.5" fill="#0B1930"/>
  <circle cx="32" cy="4" r="1.8" fill="#00E5FF" opacity=".6"/>
  <circle cx="58" cy="19" r="1.8" fill="#7C5CFC" opacity=".5"/>
  <circle cx="58" cy="49" r="1.8" fill="#00E5FF" opacity=".5"/>
  <circle cx="32" cy="64" r="1.8" fill="#7C5CFC" opacity=".6"/>
  <circle cx="6" cy="49" r="1.8" fill="#00E5FF" opacity=".5"/>
  <circle cx="6" cy="19" r="1.8" fill="#7C5CFC" opacity=".5"/>
</svg>
